<svg xmlns:xlink="http://www.w3.org/1999/xlink" xmlns="http://www.w3.org/2000/svg" width="626px" height="389px" viewBox="0 0 626 389"><desc>Created with Lunacy</desc><g id="svg"><path d="M0 0L626 0L626 389L0 389L0 0Z" id="Background" fill="none" stroke="none"></path><g id="image"><path d="M385.459 247C401.625 186.456 386.93 122.779 351.243 76.8011L44.8738 157.369L335.972 59.246C191.353 -82.8015 -41.0846 50.803 6.24981 246.372L385.459 247L385.459 247Z" transform="translate(234 141)" id="Path" fill="#E6E6E6" stroke="none"></path><path d="M86 172C133.496 172 172 133.496 172 86C172 38.5035 133.496 0 86 0C38.5035 0 0 38.5035 0 86C0 133.496 38.5035 172 86 172L86 172Z" transform="translate(46 55)" id="Oval" fill="#E6E6E6" stroke="none"></path><path d="M66 74L3.21351 74C-1.07117 49.5151 -1.07117 24.4849 3.21351 0L66 0C58.9266 24.1712 58.9266 49.8288 66 74L66 74L66 74Z" transform="translate(181 98)" id="Path" fill="#101010" stroke="none"></path><path d="M39.7941 4L1.20588 4C0.539936 4 0 3.10547 0 2C0 0.894529 0.539936 0 1.20588 0L39.7941 0C40.4601 0 41 0.894529 41 2C41 3.10547 40.4601 4 39.7941 4L39.7941 4Z" transform="translate(194 113)" id="Path" fill="#FFFFFF" stroke="none"></path><path d="M39.7941 4L1.20588 4C0.539936 4 0 3.10547 0 2C0 0.894539 0.539936 0 1.20588 0L39.7941 0C40.4601 0 41 0.894531 41 2C41 3.10548 40.4601 4 39.7941 4L39.7941 4Z" transform="translate(194 132)" id="Path" fill="#FFFFFF" stroke="none"></path><path d="M0 97L79.9101 97C85.3633 64.905 85.3633 32.095 79.9101 0L0 0C9.00251 31.6838 9.00251 65.3162 0 97L0 97Z" transform="translate(53 0)" id="Path" fill="#E82E31" stroke="none"></path><path d="M50.4706 5L1.52941 5C0.684813 5 0 3.88184 0 2.5C0 1.11816 0.684798 0 1.52941 0L50.4706 0C51.3152 0 52 1.11817 52 2.5C52 3.88183 51.3152 5 50.4706 5L50.4706 5Z" transform="translate(69 23)" id="Path" fill="#FFFFFF" stroke="none"></path><path d="M50.4706 5L1.52941 5C0.684813 5 0 3.88183 0 2.5C0 1.11817 0.684798 0 1.52941 0L50.4706 0C51.3152 0 52 1.11816 52 2.5C52 3.88184 51.3152 5 50.4706 5L50.4706 5Z" transform="translate(69 46)" id="Path" fill="#FFFFFF" stroke="none"></path><path d="M50.4706 5L1.52941 5C0.684813 5 0 3.88183 0 2.5C0 1.11817 0.684798 0 1.52941 0L50.4706 0C51.3152 0 52 1.11817 52 2.5C52 3.88183 51.3152 5 50.4706 5L50.4706 5Z" transform="translate(69 69)" id="Path" fill="#FFFFFF" stroke="none"></path><path d="M0 97L79.9101 97C85.3633 64.905 85.3633 32.095 79.9101 0L0 0C9.00251 31.6838 9.00251 65.3162 0 97L0 97Z" transform="translate(0 149)" id="Path" fill="#E82E31" stroke="none"></path><path d="M50.4706 5L1.52941 5C0.684813 5 0 3.88184 0 2.5C0 1.11816 0.684798 0 1.52941 0L50.4706 0C51.3152 0 52 1.11817 52 2.5C52 3.88183 51.3152 5 50.4706 5L50.4706 5Z" transform="translate(17 172)" id="Path" fill="#FFFFFF" stroke="none"></path><path d="M50.4706 5L1.52941 5C0.684813 5 0 3.88183 0 2.5C0 1.11817 0.684798 0 1.52941 0L50.4706 0C51.3152 0 52 1.11816 52 2.5C52 3.88184 51.3152 5 50.4706 5L50.4706 5Z" transform="translate(17 196)" id="Path" fill="#FFFFFF" stroke="none"></path><path d="M18.2267 26L30 6.54944L13.3632 0L11.8389 1.91693C8.02876 6.70849 4.62719 16.8321 0 20.768" transform="translate(364 335)" id="Path" fill="#FFB8B8" stroke="none"></path><path d="M61.9966 13.0548L61.4325 30.0565C61.3217 33.3943 58.5897 36.0328 55.2784 35.9997L42.5277 35.8722L28.148 35.8722C28.148 35.8722 1.34955 35.213 0.0423186 24.6657C-0.393429 21.1499 2.58418 18.8061 6.74799 17.2435C16.752 13.5206 26.1155 8.2389 34.4973 1.59082C36.5209 -0.0410362 39.2577 -0.451066 41.6642 0.517027L58.2628 7.26906C60.5888 8.21525 62.0805 10.5267 61.9966 13.0548L61.9966 13.0548L61.9966 13.0548Z" transform="translate(326 352)" id="Path" fill="#101010" stroke="none"></path><path d="M1.5 3C2.32843 3 3 2.32843 3 1.5C3 0.671573 2.32843 0 1.5 0C0.671573 0 0 0.671573 0 1.5C0 2.32843 0.671573 3 1.5 3L1.5 3Z" transform="translate(357 358)" id="Oval" fill="#FFFFFF" stroke="none"></path><path d="M1.5 3C2.32843 3 3 2.32843 3 1.5C3 0.671573 2.32843 0 1.5 0C0.671573 0 0 0.671573 0 1.5C0 2.32843 0.671573 3 1.5 3L1.5 3Z" transform="translate(361 354)" id="Oval" fill="#FFFFFF" stroke="none"></path><path d="M22 21.9954L16.3807 0L0 6.96208L0.29779 9.3837C1.04214 15.4368 5.88418 24.9835 5.44244 31" transform="translate(491 314)" id="Path" fill="#FFB8B8" stroke="none"></path><path d="M37.8743 1.90273L49.2376 14.1368C51.6624 16.7473 51.5744 20.8292 49.0396 23.3314L40.1455 32.111L29.9055 42.4216C29.9055 42.4216 10.3564 61.1683 1.97818 54.6069C-0.814557 52.4198 -0.349076 48.6184 1.51272 44.522C6.03716 34.6393 8.98415 24.0996 10.2449 13.2918C10.5169 10.8063 12.0962 8.66031 14.3787 7.67476L31.1875 0.478795C33.4922 -0.507854 36.1637 0.0610221 37.8743 1.90273L37.8743 1.90273Z" transform="translate(480 332)" id="Path" fill="#101010" stroke="none"></path><path d="M1.5 3C2.32843 3 3 2.32843 3 1.5C3 0.671573 2.32843 0 1.5 0C0.671573 0 0 0.671573 0 1.5C0 2.32843 0.671573 3 1.5 3L1.5 3Z" transform="translate(492 351)" id="Oval" fill="#FFFFFF" stroke="none"></path><path d="M1.5 3C2.32843 3 3 2.32843 3 1.5C3 0.671573 2.32843 0 1.5 0C0.671573 0 0 0.671573 0 1.5C0 2.32843 0.671573 3 1.5 3L1.5 3Z" transform="translate(492 344)" id="Oval" fill="#FFFFFF" stroke="none"></path><path d="M0 9.33333L7.15 30L26 18.6667C26 18.6667 16.25 6.66666 16.9 0L0 9.33333L0 9.33333Z" transform="translate(414 50)" id="Path" fill="#FFB8B8" stroke="none"></path><path d="M18.5 37C28.7173 37 37 28.7173 37 18.5C37 8.28273 28.7173 0 18.5 0C8.28273 0 0 8.28273 0 18.5C0 28.7173 8.28273 37 18.5 37L18.5 37Z" transform="translate(398 26)" id="Oval" fill="#FFB8B8" stroke="none"></path><path d="M42.7844 0L38.9041 1.07786C38.9041 1.07786 30.8765 0.657287 26.9072 6.57291C22.9379 12.4885 20.0014 11.1376 20.0014 11.1376L3.75304 35.4937C3.75304 35.4937 -1.53931 45.3531 0.445295 56.5271C2.42991 67.701 9.04543 83.476 9.04543 83.476C9.04543 83.476 51.3845 87.4197 52.7076 85.4479C54.0307 83.476 52.7076 70.3302 52.7076 70.3302L58 11.8312C58 11.8312 52.0461 1.97188 48.7383 1.97188C46.6035 1.90037 44.5354 1.21543 42.7844 0L42.7844 0Z" transform="translate(400 66)" id="Path" fill="#E82E31" stroke="none"></path><path d="M81.1215 0.164336C81.1215 0.164336 70 -0.493013 65.4206 0.821694C60.8411 2.1364 33.3645 0.821694 33.3645 0.821694L25.514 50.1232L0 189.482L27.4766 200L60.1869 121.775L64.1122 132.95L113.832 187.51L140 175.678L96.8224 103.369L83.0841 52.7527C83.0841 52.7527 91.5888 23.8291 79.8131 6.08054L81.1215 0.164336L81.1215 0.164336Z" transform="translate(375 147)" id="Path" fill="#101010" stroke="none"></path><path d="M0.0237617 0.000423302L1.33624 0L1.31248 73.7341L0 73.7345L0.0237617 0.000423302L0.0237617 0.000423302Z" transform="matrix(0.9441357 -0.3295569 0.3295569 0.9441357 409.8327 199.8107)" id="Rectangle" fill="#000000" fill-opacity="0.2" stroke="none"></path><path d="M7.67765 6.53483C6.66313 2.4241 3.27258 -0.243211 0.104646 0.577316C0.0687537 0.586599 0.0355723 0.601719 0 0.611851C0.358381 0.40751 0.741137 0.251687 1.13868 0.148289C4.30663 -0.672246 7.6972 1.99506 8.71168 6.10581C9.71468 10.1699 8.01715 14.118 4.91713 15C7.34598 13.6209 8.5628 10.1216 7.67765 6.53483L7.67765 6.53483Z" transform="translate(442 8)" id="Path" fill="#2F2E41" stroke="none"></path><path d="M8.91583 10.0322C12.2099 7.22894 13.1461 2.77568 11.0066 0.085551C10.9824 0.0550662 10.954 0.029772 10.9292 0C11.2727 0.254817 11.5827 0.554676 11.8516 0.892061C13.9911 3.58219 13.055 8.03545 9.76083 10.8387C6.50407 13.6101 2.1655 13.7263 0 11.129C2.32278 12.8584 6.04164 12.478 8.91583 10.0322L8.91583 10.0322Z" transform="translate(440 12)" id="Path" fill="#2F2E41" stroke="none"></path><path d="M6.09736 15.4488C9.46683 15.4473 12.1999 11.9876 12.2019 7.72157C12.2039 3.45549 9.47404 -0.00157083 6.10457 1.07132e-06C2.7351 0.00157299 0.00199326 3.46118 2.17578e-06 7.72726C-0.00198891 11.9933 2.72789 15.4504 6.09736 15.4488L6.09736 15.4488Z" transform="matrix(0.5317602 -0.846895 0.846895 0.5317602 434.9123 19.88642)" id="Oval" fill="#101010" stroke="none"></path><path d="M0 2.30822e-14C1.73373 0.000404437 3.43085 0.539646 4.88945 1.55357C6.17104 2.41011 7.23905 3.59345 8 5C6.26627 4.99958 4.56914 4.46033 3.11055 3.44639C1.82897 2.58985 0.760967 1.40653 0 0L0 2.30822e-14L0 2.30822e-14Z" transform="translate(439 20)" id="Path" fill="#E82E31" stroke="none"></path><path d="M6.54351 0.746626L6.54351 0.746626C3.76509 0.746626 2.89164 3.20488 3.41999 5.78338C6.43587 20.2194 5.24927 35.2139 0 49L16.8055 49L19.9519 41.5779L21.1708 49L43.1746 49L43.1746 41.5145C50.5799 11.1936 34.8756 -3.60345 6.54351 0.746626L6.54351 0.746626Z" transform="translate(407 18)" id="Path" fill="#101010" stroke="none"></path><path d="M14.3499 2.21972e-10L12.6501 2.21972e-10C9.29512 -1.97898e-05 6.07751 1.32325 3.70515 3.6787C1.33278 6.03415 1.99314e-06 9.22884 0 12.56L0 17L11.0377 15.6635L11.8537 12.4231L12.6214 15.4718L27 13.7308L27 12.56C27 9.22884 25.6672 6.03415 23.2949 3.6787C20.9225 1.32325 17.7049 -1.97898e-05 14.3499 2.21972e-10L14.3499 2.21972e-10L14.3499 2.21972e-10Z" transform="translate(396 18)" id="Path" fill="#101010" stroke="none"></path><path d="M13 0L6.65532 48.6407L0 49L13 0L13 0L13 0Z" transform="translate(426 99)" id="Path" fill="#000000" fill-opacity="0.2" stroke="none"></path><path d="M29.027 0L16.2486 39.375C16.2486 39.375 -10.3731 70 4.53505 70C19.4432 70 26.8972 42.6563 26.8972 42.6563L45 3.28126L29.027 0L29.027 0Z" transform="translate(403 159)" id="Path" fill="#FFB8B8" stroke="none"></path><path d="M18.5667 0.746303C18.5667 0.746303 27.2859 -3.06149 32.5793 6.52507C37.8728 16.1116 35.7183 52.6584 34.6463 58.0659C33.5744 63.4734 26.0705 97 26.0705 97L0.343031 91.5925C0.343031 91.5925 -1.80092 76.4515 4.63095 77.5329L18.5667 0.746303L18.5667 0.746303Z" transform="translate(427 69)" id="Path" fill="#E82E31" stroke="none"></path><path d="M0 0L598 0L598 1.79849L0 1.79849L0 0L0 0Z" transform="translate(26 387.1007)" id="Rectangle" fill="#101010" stroke="none"></path></g></g></svg>