<svg xmlns:xlink="http://www.w3.org/1999/xlink" xmlns="http://www.w3.org/2000/svg" width="1366px" height="656px" viewBox="0 0 1366 656"><desc>Created with Lunacy</desc><defs><path d="M0 0L1366 0L1366 655L0 655L0 0L0 0Z" id="path_1"></path><clipPath id="mask_1"><use xlink:href="#path_1"></use></clipPath></defs><g id="svg"><path d="M0 0L1366 0L1366 656L0 656L0 0Z" id="Background" fill="none" stroke="none"></path><g id="bg" transform="translate(0 0.5)"><path d="M0 0L1366 0L1366 655L0 655L0 0L0 0Z" id="Mask" fill="#101010" stroke="none"></path><g id="Group"><path d="M0 0L1366 0L1366 655L0 655L0 0L0 0Z" id="path_1" fill="none" stroke="none"></path><g clip-path="url(#mask_1)"><path d="M543 0L543 566.097C527.78 567.5 512.46 568.118 497.126 568.893C462.946 570.609 427.277 575.749 393.071 571.106C366.645 567.518 339.781 568.406 313.49 563.208C270.5 554.718 226.953 533.971 191.213 504.786C164.005 482.583 141.319 455.494 126.834 425.208C116.071 402.721 109.138 378.925 103.167 354.725C95.3632 323.036 84.8849 292.246 75.0993 261.125C68.2084 239.206 56.8421 219.77 50.2603 197.754C45.11 180.507 40.4924 162.928 35.9033 145.514C28.4086 117.058 19.4825 88.8323 12.5491 60.2447C7.90668 41.0785 2.69239 20.2852 0 0L543 0L543 0Z" transform="matrix(-0.8480481 -0.5299193 -0.5299193 0.8480481 638.5669 -3.592712)" id="path164" fill="#232323" stroke="none"></path><path d="M346.113 454.789C336.418 419.985 316.066 389.831 300.765 357.451C292.163 339.237 282.958 321.931 277.992 302.419C271.514 276.965 269.943 253.276 269.078 227.339C268.178 200.335 265.215 173.338 264.342 146.245C263.801 129.488 260.952 114.126 254.921 98.4831C237.82 54.151 198.114 30.0617 154.151 17.5715C103.44 3.15841 51.4187 -3.20762 -6.44681e-13 1.56616L2.1013 639.311L318.095 640.35C335.034 612.672 346.419 581.467 349.457 550.071C352.322 520.46 354.243 483.97 346.113 454.789" transform="matrix(-0.8290376 -0.5591929 -0.5591929 0.8290376 1597.882 421.135)" id="path4400" fill="#E82E31" stroke="none"></path></g></g></g></g></svg>