<svg xmlns:xlink="http://www.w3.org/1999/xlink" xmlns="http://www.w3.org/2000/svg" width="1366px" height="309px" viewBox="0 0 1366 309"><desc>Created with Lunacy</desc><defs><path d="M0 0L1366 0L1366 308L0 308L0 0L0 0Z" id="path_1"></path><clipPath id="mask_1"><use xlink:href="#path_1"></use></clipPath></defs><g id="svg"><path d="M0 0L1366 0L1366 309L0 309L0 0Z" id="Background" fill="none" stroke="none"></path><g id="bg" transform="translate(0 0.5)"><path d="M0 0L1366 0L1366 308L0 308L0 0L0 0Z" id="Mask" fill="#101010" stroke="none"></path><g id="Group"><path d="M0 0L1366 0L1366 308L0 308L0 0L0 0Z" id="path_1" fill="none" stroke="none"></path><g clip-path="url(#mask_1)"><path d="M388.631 513.08C377.828 473.762 354.989 439.742 337.854 403.186C328.221 382.624 317.905 363.09 312.377 341.046C305.167 312.289 303.483 285.51 302.604 256.184C301.689 225.654 298.448 195.139 297.564 164.509C297.016 145.563 293.86 128.204 287.117 110.538C267.997 60.4749 223.31 33.3844 173.779 19.4249C116.645 3.3162 58.0033 -3.68867 0 1.90016L0 723L356.346 723C375.551 691.641 388.506 656.316 392.048 620.804C395.39 587.311 397.691 546.045 388.631 513.08" transform="matrix(4.371139E-08 -1 -1 -4.371139E-08 706 615)" id="path4400" fill="#E82E31" stroke="none"></path></g></g></g></g></svg>