<svg xmlns:xlink="http://www.w3.org/1999/xlink" xmlns="http://www.w3.org/2000/svg" width="229px" height="239px" viewBox="0 0 229 239"><desc>Created with Lunacy</desc><g id="svg" transform="translate(1 1)"><path d="M0 0L227 0L227 237L0 237L0 0Z" id="Background" fill="none" stroke="none"></path><g id="pattern" transform="translate(0.9999987 10.04539)"><path d="M7.27538 0L7.27538 14.5455M14.5508 7.27274L0 7.27274" transform="matrix(1 2.145688E-07 2.145688E-07 -1 0 14.5455)" id="path190" fill="none" stroke="#E1E1E1" stroke-width="2"></path><path d="M7.27538 0L7.27538 14.5455M14.5508 7.27274L0 7.27274" transform="matrix(1 2.145688E-07 2.145688E-07 -1 0 14.5455)" id="path202" fill="none" stroke="#E1E1E1" stroke-width="2"></path><path d="M7.27538 1.52588e-05L7.27538 14.5455M14.5508 7.27274L-3.8147e-06 7.27274" transform="matrix(1 2.145688E-07 2.145688E-07 -1 33.25888 14.5455)" id="path214" fill="none" stroke="#E1E1E1" stroke-width="2"></path><path d="M7.27538 1.52588e-05L7.27538 14.5455M14.5508 7.27274L-3.8147e-06 7.27274" transform="matrix(1 2.145688E-07 2.145688E-07 -1 33.25888 14.5455)" id="path226" fill="none" stroke="#E1E1E1" stroke-width="2"></path><path d="M7.27538 0L7.27538 14.5455M14.5508 7.27274L0 7.27274" transform="matrix(1 2.145688E-07 2.145688E-07 -1 66.51777 14.5455)" id="path226" fill="none" stroke="#E1E1E1" stroke-width="2"></path><path d="M7.27538 1.52588e-05L7.27538 14.5455M14.5508 7.27274L0 7.27274" transform="matrix(1 2.145688E-07 2.145688E-07 -1 99.77665 14.5455)" id="path226" fill="none" stroke="#E1E1E1" stroke-width="2"></path><path d="M7.27538 0L7.27538 14.5455M14.5508 7.27274L0 7.27274" transform="matrix(1 2.145688E-07 2.145688E-07 -1 133.0355 14.5455)" id="path226" fill="none" stroke="#E1E1E1" stroke-width="2"></path><path d="M7.27538 0L7.27538 14.5455M14.5508 7.27274L0 7.27274" transform="matrix(1 2.145688E-07 2.145688E-07 -1 167.3338 14.5455)" id="path190" fill="none" stroke="#E1E1E1" stroke-width="2"></path><path d="M7.27538 0L7.27538 14.5455M14.5508 7.27274L0 7.27274" transform="matrix(1 2.145688E-07 2.145688E-07 -1 167.3338 14.5455)" id="path202" fill="none" stroke="#E1E1E1" stroke-width="2"></path><path d="M7.27538 0L7.27538 14.5455M14.5508 7.27274L0 7.27274" transform="matrix(1 2.145688E-07 2.145688E-07 -1 200.5926 14.5455)" id="path214" fill="none" stroke="#E1E1E1" stroke-width="2"></path><path d="M7.27538 0L7.27538 14.5455M14.5508 7.27274L0 7.27274" transform="matrix(1 2.145688E-07 2.145688E-07 -1 200.5926 14.5455)" id="path226" fill="none" stroke="#E1E1E1" stroke-width="2"></path><path d="M7.27538 0L7.27538 14.5455M14.5508 7.27274L0 7.27274" transform="matrix(1 2.145688E-07 2.145688E-07 -1 0 120.5195)" id="path190" fill="none" stroke="#E1E1E1" stroke-width="2"></path><path d="M7.27538 0L7.27538 14.5455M14.5508 7.27274L0 7.27274" transform="matrix(1 2.145688E-07 2.145688E-07 -1 0 85.1949)" id="path194" fill="none" stroke="#E1E1E1" stroke-width="2"></path><path d="M7.27538 0L7.27538 14.5455M14.5508 7.27274L0 7.27274" transform="matrix(1 2.145688E-07 2.145688E-07 -1 0 50.9091)" id="path198" fill="none" stroke="#E1E1E1" stroke-width="2"></path><path d="M7.27538 0L7.27538 14.5455M14.5508 7.27274L0 7.27274" transform="matrix(1 2.145688E-07 2.145688E-07 -1 0 120.5195)" id="path202" fill="none" stroke="#E1E1E1" stroke-width="2"></path><path d="M7.27538 0L7.27538 14.5455M14.5508 7.27274L0 7.27274" transform="matrix(1 2.145688E-07 2.145688E-07 -1 0 85.1949)" id="path206" fill="none" stroke="#E1E1E1" stroke-width="2"></path><path d="M7.27538 0L7.27538 14.5455M14.5508 7.27274L0 7.27274" transform="matrix(1 2.145688E-07 2.145688E-07 -1 0 50.9091)" id="path210" fill="none" stroke="#E1E1E1" stroke-width="2"></path><path d="M7.27538 0L7.27538 14.5455M14.5508 7.27274L-3.8147e-06 7.27274" transform="matrix(1 2.145688E-07 2.145688E-07 -1 33.25888 120.5195)" id="path214" fill="none" stroke="#E1E1E1" stroke-width="2"></path><path d="M7.27538 0L7.27538 14.5455M14.5508 7.27274L-3.8147e-06 7.27274" transform="matrix(1 2.145688E-07 2.145688E-07 -1 33.25888 85.1949)" id="path218" fill="none" stroke="#E1E1E1" stroke-width="2"></path><path d="M7.27538 1.52588e-05L7.27538 14.5455M14.5508 7.27274L-3.8147e-06 7.27274" transform="matrix(1 2.145688E-07 2.145688E-07 -1 33.25888 50.9091)" id="path222" fill="none" stroke="#E1E1E1" stroke-width="2"></path><path d="M7.27538 0L7.27538 14.5455M14.5508 7.27274L-3.8147e-06 7.27274" transform="matrix(1 2.145688E-07 2.145688E-07 -1 33.25888 120.5195)" id="path226" fill="none" stroke="#E1E1E1" stroke-width="2"></path><path d="M7.27538 3.05176e-05L7.27538 14.5455M14.5508 7.27274L0 7.27274" transform="matrix(1 2.145688E-07 2.145688E-07 -1 66.51777 121.5585)" id="path226" fill="none" stroke="#E1E1E1" stroke-width="2"></path><path d="M7.27538 0L7.27538 14.5455M14.5508 7.27274L0 7.27274" transform="matrix(1 2.145688E-07 2.145688E-07 -1 99.77665 121.5585)" id="path226" fill="none" stroke="#E1E1E1" stroke-width="2"></path><path d="M7.27538 0L7.27538 14.5455M14.5508 7.27274L0 7.27274" transform="matrix(1 2.145688E-07 2.145688E-07 -1 133.0355 121.5585)" id="path226" fill="none" stroke="#E1E1E1" stroke-width="2"></path><path d="M7.27538 0L7.27538 14.5455M14.5508 7.27274L-3.8147e-06 7.27274" transform="matrix(1 2.145688E-07 2.145688E-07 -1 33.25888 85.1949)" id="path230" fill="none" stroke="#E1E1E1" stroke-width="2"></path><path d="M7.27538 1.52588e-05L7.27538 14.5455M14.5508 7.27274L-3.8147e-06 7.27274" transform="matrix(1 2.145688E-07 2.145688E-07 -1 33.25888 50.9091)" id="path234" fill="none" stroke="#E1E1E1" stroke-width="2"></path><path d="M7.27538 3.05176e-05L7.27538 14.5455M14.5508 7.27275L0 7.27275" transform="matrix(1 2.145688E-07 2.145688E-07 -1 66.51777 85.1949)" id="path238" fill="none" stroke="#E1E1E1" stroke-width="2"></path><path d="M7.27538 0L7.27538 14.5455M14.5508 7.27274L0 7.27274" transform="matrix(1 2.145688E-07 2.145688E-07 -1 66.51777 50.9091)" id="path242" fill="none" stroke="#E1E1E1" stroke-width="2"></path><path d="M7.27538 3.05176e-05L7.27538 14.5455M14.5508 7.27275L0 7.27275" transform="matrix(1 2.145688E-07 2.145688E-07 -1 66.51777 85.1949)" id="path246" fill="none" stroke="#E1E1E1" stroke-width="2"></path><path d="M7.27538 0L7.27538 14.5455M14.5508 7.27274L0 7.27274" transform="matrix(1 2.145688E-07 2.145688E-07 -1 66.51777 50.9091)" id="path250" fill="none" stroke="#E1E1E1" stroke-width="2"></path><path d="M7.27538 0L7.27538 14.5455M14.5508 7.27272L0 7.27272" transform="matrix(1 2.145688E-07 2.145688E-07 -1 99.77665 85.1949)" id="path254" fill="none" stroke="#E1E1E1" stroke-width="2"></path><path d="M7.27538 1.52588e-05L7.27538 14.5455M14.5508 7.27274L0 7.27274" transform="matrix(1 2.145688E-07 2.145688E-07 -1 99.77665 50.9091)" id="path258" fill="none" stroke="#E1E1E1" stroke-width="2"></path><path d="M7.27538 0L7.27538 14.5455M14.5508 7.27272L0 7.27272" transform="matrix(1 2.145688E-07 2.145688E-07 -1 99.77665 85.1949)" id="path262" fill="none" stroke="#E1E1E1" stroke-width="2"></path><path d="M7.27538 1.52588e-05L7.27538 14.5455M14.5508 7.27274L0 7.27274" transform="matrix(1 2.145688E-07 2.145688E-07 -1 99.77665 50.9091)" id="path266" fill="none" stroke="#E1E1E1" stroke-width="2"></path><path d="M7.27538 0L7.27538 14.5455M14.5508 7.27274L0 7.27274" transform="matrix(1 2.145688E-07 2.145688E-07 -1 133.0355 85.1949)" id="path270" fill="none" stroke="#E1E1E1" stroke-width="2"></path><path d="M7.27538 0L7.27538 14.5455M14.5508 7.27274L0 7.27274" transform="matrix(1 2.145688E-07 2.145688E-07 -1 133.0355 50.9091)" id="path274" fill="none" stroke="#E1E1E1" stroke-width="2"></path><path d="M7.27538 0L7.27538 14.5455M14.5508 7.27274L0 7.27274" transform="matrix(1 2.145688E-07 2.145688E-07 -1 133.0355 85.1949)" id="path278" fill="none" stroke="#E1E1E1" stroke-width="2"></path><path d="M7.27538 0L7.27538 14.5455M14.5508 7.27274L0 7.27274" transform="matrix(1 2.145688E-07 2.145688E-07 -1 133.0355 50.9091)" id="path282" fill="none" stroke="#E1E1E1" stroke-width="2"></path><path d="M7.27538 0L7.27538 14.5455M14.5508 7.27274L0 7.27274" transform="matrix(1 2.145688E-07 2.145688E-07 -1 0 225.4546)" id="path190" fill="none" stroke="#E1E1E1" stroke-width="2"></path><path d="M7.27538 0L7.27538 14.5455M14.5508 7.27274L0 7.27274" transform="matrix(1 2.145688E-07 2.145688E-07 -1 0 189.091)" id="path194" fill="none" stroke="#E1E1E1" stroke-width="2"></path><path d="M7.27538 0L7.27538 14.5455M14.5508 7.27274L0 7.27274" transform="matrix(1 2.145688E-07 2.145688E-07 -1 0 154.8052)" id="path198" fill="none" stroke="#E1E1E1" stroke-width="2"></path><path d="M7.27538 0L7.27538 14.5455M14.5508 7.27274L0 7.27274" transform="matrix(1 2.145688E-07 2.145688E-07 -1 0 225.4546)" id="path202" fill="none" stroke="#E1E1E1" stroke-width="2"></path><path d="M7.27538 0L7.27538 14.5455M14.5508 7.27274L0 7.27274" transform="matrix(1 2.145688E-07 2.145688E-07 -1 0 189.091)" id="path206" fill="none" stroke="#E1E1E1" stroke-width="2"></path><path d="M7.27538 0L7.27538 14.5455M14.5508 7.27274L0 7.27274" transform="matrix(1 2.145688E-07 2.145688E-07 -1 0 154.8052)" id="path210" fill="none" stroke="#E1E1E1" stroke-width="2"></path><path d="M7.27538 0L7.27538 14.5455M14.5508 7.27274L0 7.27274" transform="matrix(1 2.145688E-07 2.145688E-07 -1 33.25888 225.4546)" id="path214" fill="none" stroke="#E1E1E1" stroke-width="2"></path><path d="M7.27538 0L7.27538 14.5455M14.5508 7.27274L0 7.27274" transform="matrix(1 2.145688E-07 2.145688E-07 -1 33.25888 189.091)" id="path218" fill="none" stroke="#E1E1E1" stroke-width="2"></path><path d="M7.27538 0L7.27538 14.5455M14.5508 7.27274L-3.8147e-06 7.27274" transform="matrix(1 2.145688E-07 2.145688E-07 -1 33.25888 154.8052)" id="path222" fill="none" stroke="#E1E1E1" stroke-width="2"></path><path d="M7.27538 0L7.27538 14.5455M14.5508 7.27274L0 7.27274" transform="matrix(1 2.145688E-07 2.145688E-07 -1 33.25888 225.4546)" id="path226" fill="none" stroke="#E1E1E1" stroke-width="2"></path><path d="M7.27538 3.05176e-05L7.27538 14.5455M14.5508 7.27274L0 7.27274" transform="matrix(1 2.145688E-07 2.145688E-07 -1 66.51777 225.4546)" id="path226" fill="none" stroke="#E1E1E1" stroke-width="2"></path><path d="M7.27538 0L7.27538 14.5455M14.5508 7.27274L0 7.27274" transform="matrix(1 2.145688E-07 2.145688E-07 -1 99.77665 225.4546)" id="path226" fill="none" stroke="#E1E1E1" stroke-width="2"></path><path d="M7.27538 0L7.27538 14.5455M14.5508 7.27274L0 7.27274" transform="matrix(1 2.145688E-07 2.145688E-07 -1 133.0355 225.4546)" id="path226" fill="none" stroke="#E1E1E1" stroke-width="2"></path><path d="M7.27538 0L7.27538 14.5455M14.5508 7.27274L0 7.27274" transform="matrix(1 2.145688E-07 2.145688E-07 -1 33.25888 189.091)" id="path230" fill="none" stroke="#E1E1E1" stroke-width="2"></path><path d="M7.27538 0L7.27538 14.5455M14.5508 7.27274L-3.8147e-06 7.27274" transform="matrix(1 2.145688E-07 2.145688E-07 -1 33.25888 154.8052)" id="path234" fill="none" stroke="#E1E1E1" stroke-width="2"></path><path d="M7.27538 3.05176e-05L7.27538 14.5455M14.5508 7.27274L0 7.27274" transform="matrix(1 2.145688E-07 2.145688E-07 -1 66.51777 189.091)" id="path238" fill="none" stroke="#E1E1E1" stroke-width="2"></path><path d="M7.27538 3.05176e-05L7.27538 14.5455M14.5508 7.27274L0 7.27274" transform="matrix(1 2.145688E-07 2.145688E-07 -1 66.51777 154.8052)" id="path242" fill="none" stroke="#E1E1E1" stroke-width="2"></path><path d="M7.27538 3.05176e-05L7.27538 14.5455M14.5508 7.27274L0 7.27274" transform="matrix(1 2.145688E-07 2.145688E-07 -1 66.51777 189.091)" id="path246" fill="none" stroke="#E1E1E1" stroke-width="2"></path><path d="M7.27538 3.05176e-05L7.27538 14.5455M14.5508 7.27274L0 7.27274" transform="matrix(1 2.145688E-07 2.145688E-07 -1 66.51777 154.8052)" id="path250" fill="none" stroke="#E1E1E1" stroke-width="2"></path><path d="M7.27538 0L7.27538 14.5455M14.5508 7.27274L0 7.27274" transform="matrix(1 2.145688E-07 2.145688E-07 -1 99.77665 189.091)" id="path254" fill="none" stroke="#E1E1E1" stroke-width="2"></path><path d="M7.27538 0L7.27538 14.5455M14.5508 7.27274L0 7.27274" transform="matrix(1 2.145688E-07 2.145688E-07 -1 99.77665 154.8052)" id="path258" fill="none" stroke="#E1E1E1" stroke-width="2"></path><path d="M7.27538 0L7.27538 14.5455M14.5508 7.27274L0 7.27274" transform="matrix(1 2.145688E-07 2.145688E-07 -1 99.77665 189.091)" id="path262" fill="none" stroke="#E1E1E1" stroke-width="2"></path><path d="M7.27538 0L7.27538 14.5455M14.5508 7.27274L0 7.27274" transform="matrix(1 2.145688E-07 2.145688E-07 -1 99.77665 154.8052)" id="path266" fill="none" stroke="#E1E1E1" stroke-width="2"></path><path d="M7.27538 0L7.27538 14.5455M14.5508 7.27274L0 7.27274" transform="matrix(1 2.145688E-07 2.145688E-07 -1 133.0355 189.091)" id="path270" fill="none" stroke="#E1E1E1" stroke-width="2"></path><path d="M7.27538 0L7.27538 14.5455M14.5508 7.27274L0 7.27274" transform="matrix(1 2.145688E-07 2.145688E-07 -1 133.0355 154.8052)" id="path274" fill="none" stroke="#E1E1E1" stroke-width="2"></path><path d="M7.27538 0L7.27538 14.5455M14.5508 7.27274L0 7.27274" transform="matrix(1 2.145688E-07 2.145688E-07 -1 133.0355 189.091)" id="path278" fill="none" stroke="#E1E1E1" stroke-width="2"></path><path d="M7.27538 0L7.27538 14.5455M14.5508 7.27274L0 7.27274" transform="matrix(1 2.145688E-07 2.145688E-07 -1 133.0355 154.8052)" id="path282" fill="none" stroke="#E1E1E1" stroke-width="2"></path><path d="M7.27538 0L7.27538 14.5455M14.5508 7.27274L0 7.27274" transform="matrix(1 2.145688E-07 2.145688E-07 -1 167.3338 120.5195)" id="path190" fill="none" stroke="#E1E1E1" stroke-width="2"></path><path d="M7.27538 0L7.27538 14.5455M14.5508 7.27274L0 7.27274" transform="matrix(1 2.145688E-07 2.145688E-07 -1 167.3338 85.1949)" id="path194" fill="none" stroke="#E1E1E1" stroke-width="2"></path><path d="M7.27538 0L7.27538 14.5455M14.5508 7.27274L0 7.27274" transform="matrix(1 2.145688E-07 2.145688E-07 -1 167.3338 50.9091)" id="path198" fill="none" stroke="#E1E1E1" stroke-width="2"></path><path d="M7.27538 0L7.27538 14.5455M14.5508 7.27274L0 7.27274" transform="matrix(1 2.145688E-07 2.145688E-07 -1 167.3338 120.5195)" id="path202" fill="none" stroke="#E1E1E1" stroke-width="2"></path><path d="M7.27538 0L7.27538 14.5455M14.5508 7.27274L0 7.27274" transform="matrix(1 2.145688E-07 2.145688E-07 -1 167.3338 85.1949)" id="path206" fill="none" stroke="#E1E1E1" stroke-width="2"></path><path d="M7.27538 0L7.27538 14.5455M14.5508 7.27274L0 7.27274" transform="matrix(1 2.145688E-07 2.145688E-07 -1 167.3338 50.9091)" id="path210" fill="none" stroke="#E1E1E1" stroke-width="2"></path><path d="M7.27538 0L7.27538 14.5455M14.5508 7.27274L0 7.27274" transform="matrix(1 2.145688E-07 2.145688E-07 -1 200.5926 120.5195)" id="path214" fill="none" stroke="#E1E1E1" stroke-width="2"></path><path d="M7.27538 0L7.27538 14.5455M14.5508 7.27275L0 7.27275" transform="matrix(1 2.145688E-07 2.145688E-07 -1 200.5926 85.1949)" id="path218" fill="none" stroke="#E1E1E1" stroke-width="2"></path><path d="M7.27538 0L7.27538 14.5455M14.5508 7.27274L0 7.27274" transform="matrix(1 2.145688E-07 2.145688E-07 -1 200.5926 50.9091)" id="path222" fill="none" stroke="#E1E1E1" stroke-width="2"></path><path d="M7.27538 0L7.27538 14.5455M14.5508 7.27274L0 7.27274" transform="matrix(1 2.145688E-07 2.145688E-07 -1 200.5926 120.5195)" id="path226" fill="none" stroke="#E1E1E1" stroke-width="2"></path><path d="M7.27538 0L7.27538 14.5455M14.5508 7.27275L0 7.27275" transform="matrix(1 2.145688E-07 2.145688E-07 -1 200.5926 85.1949)" id="path230" fill="none" stroke="#E1E1E1" stroke-width="2"></path><path d="M7.27538 0L7.27538 14.5455M14.5508 7.27274L0 7.27274" transform="matrix(1 2.145688E-07 2.145688E-07 -1 200.5926 50.9091)" id="path234" fill="none" stroke="#E1E1E1" stroke-width="2"></path><path d="M7.27538 0L7.27538 14.5455M14.5508 7.27274L0 7.27274" transform="matrix(1 2.145688E-07 2.145688E-07 -1 167.3338 225.4546)" id="path190" fill="none" stroke="#E1E1E1" stroke-width="2"></path><path d="M7.27538 0L7.27538 14.5455M14.5508 7.27274L0 7.27274" transform="matrix(1 2.145688E-07 2.145688E-07 -1 167.3338 189.091)" id="path194" fill="none" stroke="#E1E1E1" stroke-width="2"></path><path d="M7.27538 0L7.27538 14.5455M14.5508 7.27274L0 7.27274" transform="matrix(1 2.145688E-07 2.145688E-07 -1 167.3338 154.8052)" id="path198" fill="none" stroke="#E1E1E1" stroke-width="2"></path><path d="M7.27538 0L7.27538 14.5455M14.5508 7.27274L0 7.27274" transform="matrix(1 2.145688E-07 2.145688E-07 -1 167.3338 225.4546)" id="path202" fill="none" stroke="#E1E1E1" stroke-width="2"></path><path d="M7.27538 0L7.27538 14.5455M14.5508 7.27274L0 7.27274" transform="matrix(1 2.145688E-07 2.145688E-07 -1 167.3338 189.091)" id="path206" fill="none" stroke="#E1E1E1" stroke-width="2"></path><path d="M7.27538 0L7.27538 14.5455M14.5508 7.27274L0 7.27274" transform="matrix(1 2.145688E-07 2.145688E-07 -1 167.3338 154.8052)" id="path210" fill="none" stroke="#E1E1E1" stroke-width="2"></path><path d="M7.27538 0L7.27538 14.5455M14.5508 7.27274L0 7.27274" transform="matrix(1 2.145688E-07 2.145688E-07 -1 200.5926 225.4546)" id="path214" fill="none" stroke="#E1E1E1" stroke-width="2"></path><path d="M7.27538 0L7.27538 14.5455M14.5508 7.27274L0 7.27274" transform="matrix(1 2.145688E-07 2.145688E-07 -1 200.5926 189.091)" id="path218" fill="none" stroke="#E1E1E1" stroke-width="2"></path><path d="M7.27538 0L7.27538 14.5455M14.5508 7.27274L0 7.27274" transform="matrix(1 2.145688E-07 2.145688E-07 -1 200.5926 154.8052)" id="path222" fill="none" stroke="#E1E1E1" stroke-width="2"></path><path d="M7.27538 0L7.27538 14.5455M14.5508 7.27274L0 7.27274" transform="matrix(1 2.145688E-07 2.145688E-07 -1 200.5926 225.4546)" id="path226" fill="none" stroke="#E1E1E1" stroke-width="2"></path><path d="M7.27538 0L7.27538 14.5455M14.5508 7.27274L0 7.27274" transform="matrix(1 2.145688E-07 2.145688E-07 -1 200.5926 189.091)" id="path230" fill="none" stroke="#E1E1E1" stroke-width="2"></path><path d="M7.27538 0L7.27538 14.5455M14.5508 7.27274L0 7.27274" transform="matrix(1 2.145688E-07 2.145688E-07 -1 200.5926 154.8052)" id="path234" fill="none" stroke="#E1E1E1" stroke-width="2"></path></g></g></svg>